# xmcd CD database file
#
# Track frame offsets:
#	150
#	24878
#	47728
#	61407
#	74521
#	93576
#	108524
#	120878
#	146982
#	163174
#	177378
#	189960
#	212281
#	227531
#	238753
#	249934
#	261293
#	274143
#	291918
#	318670
#	331784
#
# Disc length: 4700 seconds
#
# Revision: 0
# Processed by: cddbd v1.5.2PL0 Copyright (c) Steve Scherf et al.
# Submitted via: CDex 1.70beta2
#
DISCID=32125a15
DTITLE=Varius Artists - La Compile des Compiles
DYEAR=1900
DGENRE=Jazz
TTITLE0=Al Hirt - Bourbon Street Parade
TTITLE1=Benny Goodman - Swing Swing Swing
TTITLE2=Tony Bennett and Count Basie - Jumpin at the Woodside
TTITLE3=Benny Goodman - Sentimental Journey
TTITLE4=Pete Fountain - Amazing Grace
TTITLE5=Harry James - You Made Me Love You
TTITLE6=Al Hirt - Muskrat Ramble
TTITLE7=Pete Fountain - It Had To Be You
TTITLE8=Louis Armstrong - On The Sunny Side Of The Street
TTITLE9=Harry James - It's Been A Long Long Time
TTITLE10=Benny Goodman - Dizzy Fingers
TTITLE11=Billie Holiday - Louis Armsrtong - Summertime
TTITLE12=Kenny G. - The Wedding Song
TTITLE13=Pete Fountain - When The Saints.....
TTITLE14=P. Fountain - The Darktown Strutters Ball
TTITLE15=Pete Fountain - Way Down Yonder in New Orleans
TTITLE16=Pete Fountain - Walking through New orleans
TTITLE17=Pete Fountain - 12th Street Rag
TTITLE18=Ella Fitzgerald - Louis Armstrong - Cheek to Cheek
TTITLE19=Benny Goodman - Sentimental Journey
TTITLE20=Al Hirt and Pete Fountain - Lazy River
EXTD=
EXTT0=
EXTT1=
EXTT2=
EXTT3=
EXTT4=
EXTT5=
EXTT6=
EXTT7=
EXTT8=
EXTT9=
EXTT10=
EXTT11=
EXTT12=
EXTT13=
EXTT14=
EXTT15=
EXTT16=
EXTT17=
EXTT18=
EXTT19=
EXTT20=
PLAYORDER=
